<svg xmlns="http://www.w3.org/2000/svg" viewBox="0 0 24 24" fill="none" stroke="currentColor" stroke-width="1.5" stroke-linecap="round" stroke-linejoin="round">
  <!-- Central cube -->
  <path d="M12 8l4 2v4l-4 2-4-2v-4l4-2z" fill="currentColor" stroke="none" opacity="0.3"/>
  <path d="M12 8l4 2v4l-4 2-4-2v-4l4-2z"/>
  <path d="M12 8v2.5"/>
  <path d="M16 10l-4 2"/>
  <path d="M8 10l4 2"/>

  <!-- Top module -->
  <rect x="10" y="1" width="4" height="3" rx="0.5"/>
  <path d="M12 4v4"/>

  <!-- Left module -->
  <rect x="1" y="10" width="4" height="3" rx="0.5"/>
  <path d="M5 11.5h3"/>

  <!-- Right module -->
  <rect x="19" y="10" width="4" height="3" rx="0.5"/>
  <path d="M16 11.5h3"/>

  <!-- Bottom module -->
  <rect x="10" y="20" width="4" height="3" rx="0.5"/>
  <path d="M12 16v4"/>

  <!-- Small connection dots -->
  <circle cx="12" cy="6" r="0.5" fill="currentColor"/>
  <circle cx="6.5" cy="11.5" r="0.5" fill="currentColor"/>
  <circle cx="17.5" cy="11.5" r="0.5" fill="currentColor"/>
  <circle cx="12" cy="18" r="0.5" fill="currentColor"/>
</svg>
